<svg xmlns="http://www.w3.org/2000/svg" width="43.733" height="43.733" viewBox="0 0 40.999999 40.999999"><path d="M36.12 19.524h-2.93v-7.81a3.916 3.916 0 0 0-3.904-3.904h-7.81V4.88A4.883 4.883 0 0 0 16.596 0a4.883 4.883 0 0 0-4.882 4.881V7.81h-7.81C1.758 7.81.02 9.567.02 11.714v7.42h2.909a5.274 5.274 0 0 1 5.271 5.27 5.274 5.274 0 0 1-5.271 5.272H0v7.42A3.916 3.916 0 0 0 3.905 41h7.419v-2.929a5.274 5.274 0 0 1 5.271-5.271 5.274 5.274 0 0 1 5.272 5.271V41h7.419a3.916 3.916 0 0 0 3.904-3.905v-7.81h2.93a4.883 4.883 0 0 0 4.88-4.88 4.883 4.883 0 0 0-4.88-4.881z" fill="#fff"/></svg>