<?xml version="1.0" encoding="UTF-8" standalone="no"?>
<!-- Created with Inkscape (http://www.inkscape.org/) -->

<svg
   xmlns:dc="http://purl.org/dc/elements/1.1/"
   xmlns:cc="http://creativecommons.org/ns#"
   xmlns:rdf="http://www.w3.org/1999/02/22-rdf-syntax-ns#"
   xmlns:svg="http://www.w3.org/2000/svg"
   xmlns="http://www.w3.org/2000/svg"
   xmlns:sodipodi="http://sodipodi.sourceforge.net/DTD/sodipodi-0.dtd"
   xmlns:inkscape="http://www.inkscape.org/namespaces/inkscape"
   width="36.051403mm"
   height="11.571108mm"
   viewBox="0 0 127.74119 40.999988"
   id="svg4993"
   version="1.1"
   inkscape:version="0.91 r13725"
   sodipodi:docname="logo-white.svg">
  <defs
     id="defs4995" />
  <sodipodi:namedview
     id="base"
     pagecolor="#ffffff"
     bordercolor="#666666"
     borderopacity="1.0"
     inkscape:pageopacity="0.0"
     inkscape:pageshadow="2"
     inkscape:zoom="2.56"
     inkscape:cx="-61.11918"
     inkscape:cy="92.203137"
     inkscape:document-units="px"
     inkscape:current-layer="layer1"
     showgrid="false"
     fit-margin-top="0"
     fit-margin-left="0"
     fit-margin-right="0"
     fit-margin-bottom="0"
     inkscape:window-width="1920"
     inkscape:window-height="983"
     inkscape:window-x="0"
     inkscape:window-y="27"
     inkscape:window-maximized="1" />
  <metadata
     id="metadata4998">
    <rdf:RDF>
      <cc:Work
         rdf:about="">
        <dc:format>image/svg+xml</dc:format>
        <dc:type
           rdf:resource="http://purl.org/dc/dcmitype/StillImage" />
        <dc:title />
      </cc:Work>
    </rdf:RDF>
  </metadata>
  <g
     inkscape:label="Layer 1"
     inkscape:groupmode="layer"
     id="layer1"
     transform="translate(6908.9846,-1828.9337)">
    <g
       style="fill:#000000"
       id="g4915"
       transform="matrix(1.5096495,0,0,1.5096495,-6908.9846,1828.9337)">
      <path
         id="path4917"
         d="M 0,0 24,0 24,24 0,24 Z"
         inkscape:connector-curvature="0"
         style="fill:none" />
      <path
         style="fill:#ffffff;fill-opacity:1"
         id="path4919"
         d="M 20.5,11 19,11 19,7 C 19,5.9 18.1,5 17,5 L 13,5 13,3.5 C 13,2.12 11.88,1 10.5,1 9.12,1 8,2.12 8,3.5 L 8,5 4,5 C 2.9,5 2.01,5.9 2.01,7 l 0,3.8 1.49,0 c 1.49,0 2.7,1.21 2.7,2.7 0,1.49 -1.21,2.7 -2.7,2.7 L 2,16.2 2,20 c 0,1.1 0.9,2 2,2 l 3.8,0 0,-1.5 c 0,-1.49 1.21,-2.7 2.7,-2.7 1.49,0 2.7,1.21 2.7,2.7 l 0,1.5 3.8,0 c 1.1,0 2,-0.9 2,-2 l 0,-4 1.5,0 C 21.88,16 23,14.88 23,13.5 23,12.12 21.88,11 20.5,11 Z"
         inkscape:connector-curvature="0" />
    </g>
    <g
       style="font-style:normal;font-weight:normal;font-size:2.01675367px;line-height:125%;font-family:sans-serif;letter-spacing:0px;word-spacing:0px;fill:#ffffff;fill-opacity:1;stroke:none;stroke-width:1px;stroke-linecap:butt;stroke-linejoin:miter;stroke-opacity:1"
       id="text4921">
      <path
         sodipodi:type="inkscape:offset"
         inkscape:radius="0"
         inkscape:original="M -6809.0879 1834.3262 L -6809.0879 1834.3281 L -6809.0879 1857.0723 C -6809.0879 1858.7454 -6808.761 1860.0659 -6808.1074 1861.0332 C -6807.4539 1862.0005 -6806.3162 1862.4824 -6804.6953 1862.4824 C -6803.7018 1862.4824 -6802.906 1862.3532 -6802.3047 1862.0918 L -6802.8926 1858.7188 C -6803.0756 1858.7707 -6803.2197 1858.7969 -6803.3242 1858.7969 L -6803.5977 1858.7969 C -6803.833 1858.7969 -6804.0545 1858.6916 -6804.2637 1858.4824 C -6804.4728 1858.2472 -6804.5781 1857.8556 -6804.5781 1857.3066 L -6804.5781 1834.3262 L -6809.0879 1834.3262 z M -6866.1309 1836.3652 L -6866.1309 1862.0117 L -6850.2871 1862.0117 L -6850.2871 1858.1699 L -6861.582 1858.1699 L -6861.582 1850.6016 L -6852.3652 1850.6016 L -6852.3652 1846.7578 L -6861.582 1846.7578 L -6861.582 1840.209 L -6850.6797 1840.209 L -6850.6797 1836.3652 L -6866.1309 1836.3652 z M -6822.9277 1837.5039 L -6823.4766 1842.7578 L -6826.457 1842.9531 L -6826.457 1846.3262 L -6823.7109 1846.3262 L -6823.7109 1855.502 C -6823.7109 1856.5477 -6823.6056 1857.5025 -6823.3965 1858.3652 C -6823.1612 1859.2018 -6822.8085 1859.9331 -6822.3379 1860.5605 C -6821.8412 1861.1618 -6821.2152 1861.6328 -6820.457 1861.9727 C -6819.6728 1862.3125 -6818.718 1862.4824 -6817.5938 1862.4824 C -6816.8356 1862.4824 -6816.1302 1862.4049 -6815.4766 1862.248 C -6814.7969 1862.1173 -6814.1947 1861.9603 -6813.6719 1861.7773 L -6814.457 1858.4434 C -6814.7446 1858.5741 -6815.0715 1858.6794 -6815.4375 1858.7578 C -6815.7774 1858.8363 -6816.1172 1858.875 -6816.457 1858.875 C -6818.2609 1858.875 -6819.1621 1857.7503 -6819.1621 1855.502 L -6819.1621 1846.3262 L -6814.2598 1846.3262 L -6814.2598 1842.7578 L -6819.1621 1842.7578 L -6819.1621 1837.5039 L -6822.9277 1837.5039 z M -6846.2617 1842.7578 L -6840.5352 1851.9727 L -6846.6523 1862.0117 L -6841.9473 1862.0117 L -6839.9082 1858.209 C -6839.6206 1857.6077 -6839.3455 1857.0314 -6839.084 1856.4824 C -6838.7965 1855.9072 -6838.5103 1855.3459 -6838.2227 1854.7969 L -6838.0645 1854.7969 C -6837.7246 1855.3459 -6837.3977 1855.9072 -6837.084 1856.4824 C -6836.7441 1857.0576 -6836.4192 1857.6339 -6836.1055 1858.209 L -6833.752 1862.0117 L -6828.8887 1862.0117 L -6835.0059 1852.4824 L -6829.3203 1842.7578 L -6833.9863 1842.7578 L -6835.8301 1846.4043 C -6836.0654 1846.9272 -6836.3128 1847.4776 -6836.5742 1848.0527 C -6836.8357 1848.6017 -6837.085 1849.1373 -6837.3203 1849.6602 L -6837.4766 1849.6602 C -6837.7642 1849.1373 -6838.0652 1848.6017 -6838.3789 1848.0527 C -6838.6664 1847.4776 -6838.9546 1846.9272 -6839.2422 1846.4043 L -6841.3984 1842.7578 L -6846.2617 1842.7578 z M -6799.7129 1842.7578 L -6792.1445 1861.7773 L -6792.498 1862.9922 C -6792.8118 1863.9595 -6793.2828 1864.7444 -6793.9102 1865.3457 C -6794.5115 1865.9731 -6795.3223 1866.2871 -6796.3418 1866.2871 C -6796.5771 1866.2871 -6796.8245 1866.2483 -6797.0859 1866.1699 C -6797.3213 1866.118 -6797.5299 1866.0644 -6797.7129 1866.0117 L -6798.5371 1869.541 C -6798.1711 1869.672 -6797.7926 1869.7644 -6797.4004 1869.8164 C -6797.0083 1869.8949 -6796.5502 1869.9336 -6796.0273 1869.9336 C -6794.9816 1869.9336 -6794.0675 1869.7637 -6793.2832 1869.4238 C -6792.4727 1869.1101 -6791.7653 1868.6391 -6791.1641 1868.0117 C -6790.5367 1867.4104 -6789.9882 1866.6791 -6789.5176 1865.8164 C -6789.047 1864.9537 -6788.6148 1863.973 -6788.2227 1862.875 L -6781.2441 1842.7578 L -6785.5957 1842.7578 L -6788.498 1852.209 C -6788.7333 1853.0717 -6788.9827 1853.9729 -6789.2441 1854.9141 C -6789.4794 1855.8291 -6789.7139 1856.7322 -6789.9492 1857.6211 L -6790.1055 1857.6211 C -6790.3931 1856.7061 -6790.6812 1855.79 -6790.9688 1854.875 C -6791.2302 1853.9338 -6791.5054 1853.0455 -6791.793 1852.209 L -6795.125 1842.7578 L -6799.7129 1842.7578 z "
         style="font-style:normal;font-variant:normal;font-weight:600;font-stretch:normal;font-size:39.21465302px;font-family:'Source Sans Pro';-inkscape-font-specification:'Source Sans Pro Semi-Bold';letter-spacing:1.12041867px;fill:#ffffff;fill-opacity:1"
         id="path4150"
         d="m -6809.0879,1834.3262 0,0 0,22.7442 c 0,1.6731 0.3269,2.9936 0.9805,3.9609 0.6535,0.9673 1.7912,1.4492 3.4121,1.4492 0.9935,0 1.7893,-0.1292 2.3906,-0.3906 l -0.5879,-3.373 c -0.183,0.052 -0.3271,0.078 -0.4316,0.078 l -0.2735,0 c -0.2353,0 -0.4568,-0.1053 -0.666,-0.3145 -0.2091,-0.2352 -0.3144,-0.6268 -0.3144,-1.1758 l 0,-22.9804 -4.5098,0 z m -57.043,2.039 0,25.6465 15.8438,0 0,-3.8418 -11.2949,0 0,-7.5683 9.2168,0 0,-3.8438 -9.2168,0 0,-6.5488 10.9023,0 0,-3.8438 -15.4512,0 z m 43.2032,1.1387 -0.5489,5.2539 -2.9804,0.1953 0,3.3731 2.7461,0 0,9.1758 c 0,1.0457 0.1053,2.0005 0.3144,2.8632 0.2353,0.8366 0.588,1.5679 1.0586,2.1953 0.4967,0.6013 1.1227,1.0723 1.8809,1.4122 0.7842,0.3398 1.739,0.5097 2.8632,0.5097 0.7582,0 1.4636,-0.078 2.1172,-0.2344 0.6797,-0.1307 1.2819,-0.2877 1.8047,-0.4707 l -0.7851,-3.3339 c -0.2876,0.1307 -0.6145,0.236 -0.9805,0.3144 -0.3399,0.078 -0.6797,0.1172 -1.0195,0.1172 -1.8039,0 -2.7051,-1.1247 -2.7051,-3.373 l 0,-9.1758 4.9023,0 0,-3.5684 -4.9023,0 0,-5.2539 -3.7656,0 z m -23.334,5.2539 5.7265,9.2149 -6.1171,10.039 4.705,0 2.0391,-3.8027 c 0.2876,-0.6013 0.5627,-1.1776 0.8242,-1.7266 0.2875,-0.5752 0.5737,-1.1365 0.8613,-1.6855 l 0.1582,0 c 0.3399,0.549 0.6668,1.1103 0.9805,1.6855 0.3399,0.5752 0.6648,1.1515 0.9785,1.7266 l 2.3535,3.8027 4.8633,0 -6.1172,-9.5293 5.6856,-9.7246 -4.666,0 -1.8438,3.6465 c -0.2353,0.5229 -0.4827,1.0733 -0.7441,1.6484 -0.2615,0.549 -0.5108,1.0846 -0.7461,1.6075 l -0.1563,0 c -0.2876,-0.5229 -0.5886,-1.0585 -0.9023,-1.6075 -0.2875,-0.5751 -0.5757,-1.1255 -0.8633,-1.6484 l -2.1562,-3.6465 -4.8633,0 z m 46.5488,0 7.5684,19.0195 -0.3535,1.2149 c -0.3138,0.9673 -0.7848,1.7522 -1.4122,2.3535 -0.6013,0.6274 -1.4121,0.9414 -2.4316,0.9414 -0.2353,0 -0.4827,-0.039 -0.7441,-0.1172 -0.2354,-0.052 -0.444,-0.1055 -0.627,-0.1582 l -0.8242,3.5293 c 0.366,0.131 0.7445,0.2234 1.1367,0.2754 0.3921,0.079 0.8502,0.1172 1.3731,0.1172 1.0457,0 1.9598,-0.1699 2.7441,-0.5098 0.8105,-0.3137 1.5179,-0.7847 2.1191,-1.4121 0.6274,-0.6013 1.1759,-1.3326 1.6465,-2.1953 0.4706,-0.8627 0.9028,-1.8434 1.2949,-2.9414 l 6.9786,-20.1172 -4.3516,0 -2.9023,9.4512 c -0.2353,0.8627 -0.4847,1.7639 -0.7461,2.7051 -0.2353,0.915 -0.4698,1.8181 -0.7051,2.707 l -0.1563,0 c -0.2876,-0.915 -0.5757,-1.8311 -0.8633,-2.7461 -0.2614,-0.9412 -0.5366,-1.8295 -0.8242,-2.666 l -3.332,-9.4512 -4.5879,0 z" />
    </g>
  </g>
</svg>
